#format: frame checksums
#version: 1
#hash: MD5
#tb 0: 1/30
#stream#, dts,        pts, duration,     size, hash
0,          0,          0,        1,    38016, ad137b9eae93daed28fe31fd5165b4d0
0,          1,          1,        1,    38016, 7cd527f647680c0eb305050d27fb8092
0,          2,          2,        1,    38016, f306e07a2e86c82a8cc1333be3812326
0,          3,          3,        1,    38016, 4ffd6065ef6af716fdb7388479cf300e
0,          4,          4,        1,    38016, e776c698ae335107d5794c02cf00d3ee
0,          5,          5,        1,    38016, c0043e3283b96a4aa58d2265b007e67e
0,          6,          6,        1,    38016, 235dd358e6adb3e144d7d957458e74a0
0,          7,          7,        1,    38016, 4d34b966a406e7c2d5cef029ddc76021
0,          8,          8,        1,    38016, 65f9eb823a63e17710b111892c415b70
0,          9,          9,        1,    38016, 84d4a1d510d1c1aa8f3e7232d574ba9d
0,         10,         10,        1,    38016, f3218df364f0e283df56b5d4a9cdfca9
0,         11,         11,        1,    38016, 3079d93a140b51fe3e7b4889fd5fdd24
0,         12,         12,        1,    38016, 4b76d7f904960792b78378c95453b77a
0,         13,         13,        1,    38016, 26cdd39f9cd862b383352bf769d212a0
0,         14,         14,        1,    38016, d98dbe7d7b8a5ccc50cb3a2e3dcacec8
0,         15,         15,        1,    38016, a931f142064062d7d2d1245278c6edd9
0,         16,         16,        1,    38016, 0c6dae06c59c040801be386d7e883f52
0,         17,         17,        1,    38016, cec4a68182fb14185360f57de81e73cb
0,         18,         18,        1,    38016, 7e819d1d928f974f25d45023a89a6765
0,         19,         19,        1,    38016, 6d9a9fd28212940497f881ef4886d756
0,         20,         20,        1,    38016, f22969fc06edc0c9190cae8bb22243ae
0,         21,         21,        1,    38016, 2fcd676dbf66f842e91649a3d6c80f50
0,         22,         22,        1,    38016, ce16e8920e91ec208dfb241addfc612b
0,         23,         23,        1,    38016, 3a205f364751ff5e72d7da20e5713f53
0,         24,         24,        1,    38016, 2305bcde500197d7697eec4ba89f1533
0,         25,         25,        1,    38016, 23712ae207ea2381f886ed038ec3852b
0,         26,         26,        1,    38016, 7197e717541573be07f9cda50ba524a9
0,         27,         27,        1,    38016, 3f3e3ec6d1d6f49021affbadb75c1fda
0,         28,         28,        1,    38016, 424fe8391a419b005a6f142ec65d802b
